<?xml version="1.0" standalone="no"?>
<!DOCTYPE svg PUBLIC "-//W3C//DTD SVG 20010904//EN"
 "http://www.w3.org/TR/2001/REC-SVG-20010904/DTD/svg10.dtd">
<svg version="1.0" xmlns="http://www.w3.org/2000/svg"
 width="421.000000pt" height="479.000000pt" viewBox="0 0 421.000000 479.000000"
 preserveAspectRatio="xMidYMid meet">
<metadata>
Created by potrace 1.11, written by Peter Selinger 2001-2013
</metadata>
<g transform="translate(0.000000,479.000000) scale(0.100000,-0.100000)"
fill="#000000" stroke="none">
<path d="M1910 4679 c-96 -56 -389 -224 -650 -374 -261 -150 -641 -368 -845
-486 -203 -117 -375 -212 -382 -212 -7 0 -13 -5 -15 -11 -2 -6 -1 -548 2
-1205 l5 -1194 450 -259 c248 -143 578 -333 735 -422 715 -411 865 -498 868
-507 5 -13 23 -11 41 5 9 8 225 134 481 281 578 332 785 451 1215 699 187 108
343 197 347 198 6 2 12 2045 8 2404 0 6 -6 11 -12 11 -7 0 -128 67 -268 148
-140 81 -484 279 -765 440 -280 161 -624 359 -764 439 -139 80 -258 146 -265
146 -6 0 -90 -46 -186 -101z m340 -22 c80 -46 267 -153 415 -239 149 -85 408
-234 577 -331 169 -97 362 -209 430 -248 68 -39 194 -112 281 -162 86 -50 157
-93 157 -96 0 -3 -24 -19 -53 -35 -28 -17 -207 -119 -397 -229 -878 -507
-1559 -897 -1564 -897 -2 0 -116 64 -253 143 -136 79 -345 199 -463 267 -308
177 -587 338 -800 460 -102 59 -256 147 -342 196 -87 49 -157 91 -158 94 0 5
170 103 895 520 165 95 395 226 510 293 116 66 298 171 405 233 107 63 200
114 205 114 6 0 75 -38 155 -83z m-1943 -1254 c290 -167 956 -550 1425 -819
l348 -199 0 -1162 c0 -640 -1 -1163 -3 -1163 -2 0 -129 73 -283 161 -153 89
-461 266 -684 394 -223 127 -513 294 -645 370 -132 76 -276 159 -320 184 l-80
46 -3 1163 c-1 639 0 1162 3 1162 3 0 112 -62 242 -137z m3833 -1022 l0 -1159
-52 -30 c-29 -16 -138 -79 -243 -139 -447 -258 -721 -415 -1405 -808 -151 -87
-285 -165 -298 -173 l-22 -14 0 1165 0 1165 123 70 c140 80 377 217 1077 620
649 374 803 462 813 462 4 0 7 -522 7 -1159z"/>
</g>
</svg>
