<svg width="1280" height="699" xmlns="http://www.w3.org/2000/svg"><g><path d="M-45,-73L-101,110L43,-17Z" fill="#f8fdff" stroke="#f8fdff"/><path d="M-45,-73L43,-17L166,-89Z" fill="#f1fafb" stroke="#f1fafb"/><path d="M43,-17L-101,110L34,124Z" fill="#eefcfe" stroke="#eefcfe"/><path d="M43,-17L34,124L166,134Z" fill="#e5f9fa" stroke="#e5f9fa"/><path d="M43,-17L166,134L166,-89Z" fill="#eaf7f8" stroke="#eaf7f8"/><path d="M166,-89L166,134L409,122Z" fill="#d8f3f4" stroke="#d8f3f4"/><path d="M166,-89L409,122L427,-88Z" fill="#d7f0ef" stroke="#d7f0ef"/><path d="M166,-89L427,-88L493,-96Z" fill="#d4efed" stroke="#d4efed"/><path d="M166,-89L493,-96L828,-124Z" fill="#c4e8e0" stroke="#c4e8e0"/><path d="M427,-88L409,122L566,90Z" fill="#c2e9e2" stroke="#c2e9e2"/><path d="M427,-88L566,90L493,-96Z" fill="#c4e8e0" stroke="#c4e8e0"/><path d="M493,-96L566,90L665,-76Z" fill="#bbe4d8" stroke="#bbe4d8"/><path d="M493,-96L665,-76L828,-124Z" fill="#b0dfce" stroke="#b0dfce"/><path d="M665,-76L566,90L695,26Z" fill="#b1e1d1" stroke="#b1e1d1"/><path d="M665,-76L695,26L828,-124Z" fill="#a9d9c4" stroke="#a9d9c4"/><path d="M828,-124L695,26L812,87Z" fill="#a4d5bd" stroke="#a4d5bd"/><path d="M828,-124L812,87L971,-91Z" fill="#9bcdb0" stroke="#9bcdb0"/><path d="M828,-124L971,-91L1331,-94Z" fill="#89be96" stroke="#89be96"/><path d="M971,-91L812,87L974,76Z" fill="#93c9a8" stroke="#93c9a8"/><path d="M971,-91L974,76L1066,-15Z" fill="#8dc19c" stroke="#8dc19c"/><path d="M971,-91L1066,-15L1331,-94Z" fill="#80b78a" stroke="#80b78a"/><path d="M1066,-15L974,76L1100,62Z" fill="#83be95" stroke="#83be95"/><path d="M1066,-15L1100,62L1320,42Z" fill="#7cb484" stroke="#7cb484"/><path d="M1066,-15L1320,42L1331,-94Z" fill="#80ad80" stroke="#80ad80"/><path d="M1331,-94L1320,42L1451,-43Z" fill="#80a280" stroke="#80a280"/><path d="M1451,-43L1320,42L1412,61Z" fill="#7da080" stroke="#7da080"/><path d="M1451,-43L1412,61L1461,255Z" fill="#759c80" stroke="#759c80"/><path d="M-101,110L-112,388L-33,253Z" fill="#d5faf2" stroke="#d5faf2"/><path d="M-101,110L-33,253L34,124Z" fill="#e5fdff" stroke="#e5fdff"/><path d="M34,124L-33,253L119,214Z" fill="#d7f9f8" stroke="#d7f9f8"/><path d="M34,124L119,214L166,134Z" fill="#d9f8f9" stroke="#d9f8f9"/><path d="M166,134L119,214L207,208Z" fill="#cff6f5" stroke="#cff6f5"/><path d="M166,134L207,208L409,122Z" fill="#cbf3f3" stroke="#cbf3f3"/><path d="M409,122L207,208L422,263Z" fill="#baeeea" stroke="#baeeea"/><path d="M409,122L422,263L579,185Z" fill="#ade8e0" stroke="#ade8e0"/><path d="M409,122L579,185L566,90Z" fill="#b1e7de" stroke="#b1e7de"/><path d="M566,90L579,185L695,26Z" fill="#a9e2d4" stroke="#a9e2d4"/><path d="M695,26L579,185L708,230Z" fill="#9fdfcf" stroke="#9fdfcf"/><path d="M695,26L708,230L812,87Z" fill="#9ad8c3" stroke="#9ad8c3"/><path d="M812,87L708,230L860,219Z" fill="#8cd3ba" stroke="#8cd3ba"/><path d="M812,87L860,219L940,166Z" fill="#87cdb0" stroke="#87cdb0"/><path d="M812,87L940,166L974,76Z" fill="#89caaa" stroke="#89caaa"/><path d="M974,76L940,166L1098,205Z" fill="#7ac19c" stroke="#7ac19c"/><path d="M974,76L1098,205L1100,62Z" fill="#79bd94" stroke="#79bd94"/><path d="M1100,62L1098,205L1320,42Z" fill="#73b383" stroke="#73b383"/><path d="M1320,42L1098,205L1329,274Z" fill="#6aac80" stroke="#6aac80"/><path d="M1320,42L1329,274L1412,61Z" fill="#70a380" stroke="#70a380"/><path d="M1412,61L1329,274L1461,255Z" fill="#659e7c" stroke="#659e7c"/><path d="M-33,253L-112,388L128,422Z" fill="#b3efde" stroke="#b3efde"/><path d="M-33,253L128,422L119,214Z" fill="#bbf1e6" stroke="#bbf1e6"/><path d="M119,214L128,422L229,397Z" fill="#a6ebdb" stroke="#a6ebdb"/><path d="M119,214L229,397L207,208Z" fill="#b6efe6" stroke="#b6efe6"/><path d="M207,208L229,397L422,263Z" fill="#a8eadf" stroke="#a8eadf"/><path d="M422,263L229,397L344,414Z" fill="#92e3cf" stroke="#92e3cf"/><path d="M422,263L344,414L546,427Z" fill="#84dbc2" stroke="#84dbc2"/><path d="M422,263L546,427L579,185Z" fill="#8edfca" stroke="#8edfca"/><path d="M579,185L546,427L654,368Z" fill="#7bd9bd" stroke="#7bd9bd"/><path d="M579,185L654,368L708,230Z" fill="#86dac2" stroke="#86dac2"/><path d="M708,230L654,368L831,417Z" fill="#69cea9" stroke="#69cea9"/><path d="M708,230L831,417L860,219Z" fill="#6fcba7" stroke="#6fcba7"/><path d="M860,219L831,417L964,429Z" fill="#55bf8e" stroke="#55bf8e"/><path d="M860,219L964,429L940,166Z" fill="#67c297" stroke="#67c297"/><path d="M940,166L964,429L1098,205Z" fill="#5fbb8d" stroke="#5fbb8d"/><path d="M1098,205L964,429L1132,351Z" fill="#49b279" stroke="#49b279"/><path d="M1098,205L1132,351L1243,371Z" fill="#47ab6e" stroke="#47ab6e"/><path d="M1098,205L1243,371L1329,274Z" fill="#4ea76d" stroke="#4ea76d"/><path d="M1329,274L1243,371L1378,383Z" fill="#3f9b63" stroke="#3f9b63"/><path d="M1329,274L1378,383L1461,255Z" fill="#49976a" stroke="#49976a"/><path d="M1461,255L1378,383L1439,523Z" fill="#348a56" stroke="#348a56"/><path d="M1461,255L1439,523L1447,678Z" fill="#1e7636" stroke="#1e7636"/><path d="M-112,388L-100,696L-46,526Z" fill="#90d0a5" stroke="#90d0a5"/><path d="M-112,388L-46,526L111,476Z" fill="#9bdbbb" stroke="#9bdbbb"/><path d="M-112,388L111,476L128,422Z" fill="#9de0c4" stroke="#9de0c4"/><path d="M128,422L111,476L197,533Z" fill="#89d3b1" stroke="#89d3b1"/><path d="M128,422L197,533L229,397Z" fill="#8bd6b8" stroke="#8bd6b8"/><path d="M229,397L197,533L326,538Z" fill="#7ccda8" stroke="#7ccda8"/><path d="M229,397L326,538L344,414Z" fill="#81d3b4" stroke="#81d3b4"/><path d="M344,414L326,538L487,566Z" fill="#6ac49a" stroke="#6ac49a"/><path d="M344,414L487,566L546,427Z" fill="#6ac89f" stroke="#6ac89f"/><path d="M546,427L487,566L620,560Z" fill="#54ba86" stroke="#54ba86"/><path d="M546,427L620,560L654,368Z" fill="#5cc396" stroke="#5cc396"/><path d="M654,368L620,560L831,417Z" fill="#53bd8b" stroke="#53bd8b"/><path d="M831,417L620,560L861,508Z" fill="#41af71" stroke="#41af71"/><path d="M831,417L861,508L964,429Z" fill="#3fad6f" stroke="#3fad6f"/><path d="M964,429L861,508L985,530Z" fill="#31a15b" stroke="#31a15b"/><path d="M964,429L985,530L1090,575Z" fill="#249748" stroke="#249748"/><path d="M964,429L1090,575L1132,351Z" fill="#2c9d54" stroke="#2c9d54"/><path d="M1132,351L1090,575L1243,371Z" fill="#2a994d" stroke="#2a994d"/><path d="M1243,371L1090,575L1317,470Z" fill="#218c3a" stroke="#218c3a"/><path d="M1243,371L1317,470L1378,383Z" fill="#2f904f" stroke="#2f904f"/><path d="M1378,383L1317,470L1439,523Z" fill="#24813f" stroke="#24813f"/><path d="M-46,526L-100,696L55,643Z" fill="#7abe88" stroke="#7abe88"/><path d="M-46,526L55,643L111,476Z" fill="#82c99d" stroke="#82c99d"/><path d="M111,476L55,643L197,533Z" fill="#7ac69a" stroke="#7ac69a"/><path d="M197,533L55,643L259,632Z" fill="#6abb87" stroke="#6abb87"/><path d="M197,533L259,632L326,538Z" fill="#69be8f" stroke="#69be8f"/><path d="M326,538L259,632L328,651Z" fill="#5cb580" stroke="#5cb580"/><path d="M326,538L328,651L487,566Z" fill="#59b680" stroke="#59b680"/><path d="M487,566L328,651L478,675Z" fill="#4cab6d" stroke="#4cab6d"/><path d="M487,566L478,675L620,560Z" fill="#44ac6d" stroke="#44ac6d"/><path d="M620,560L478,675L659,696Z" fill="#3aa15a" stroke="#3aa15a"/><path d="M620,560L659,696L861,508Z" fill="#32a25b" stroke="#32a25b"/><path d="M861,508L659,696L876,689Z" fill="#239341" stroke="#239341"/><path d="M861,508L876,689L938,668Z" fill="#198d36" stroke="#198d36"/><path d="M861,508L938,668L985,530Z" fill="#209342" stroke="#209342"/><path d="M985,530L938,668L1090,575Z" fill="#12882f" stroke="#12882f"/><path d="M1090,575L938,668L1137,616Z" fill="#087f1f" stroke="#087f1f"/><path d="M1090,575L1137,616L1317,470Z" fill="#0e8021" stroke="#0e8021"/><path d="M1317,470L1137,616L1283,628Z" fill="#0a771a" stroke="#0a771a"/><path d="M1317,470L1283,628L1439,523Z" fill="#117524" stroke="#117524"/><path d="M1439,523L1283,628L1447,678Z" fill="#01640d" stroke="#01640d"/><path d="M-100,696L-54,787L55,643Z" fill="#7aae7f" stroke="#7aae7f"/><path d="M55,643L-54,787L132,859Z" fill="#73a17c" stroke="#73a17c"/><path d="M55,643L132,859L219,822Z" fill="#6a9c78" stroke="#6a9c78"/><path d="M55,643L219,822L259,632Z" fill="#66a977" stroke="#66a977"/><path d="M259,632L219,822L344,771Z" fill="#5d9d73" stroke="#5d9d73"/><path d="M259,632L344,771L328,651Z" fill="#5aa772" stroke="#5aa772"/><path d="M328,651L344,771L478,675Z" fill="#52a16b" stroke="#52a16b"/><path d="M478,675L344,771L512,853Z" fill="#4a9165" stroke="#4a9165"/><path d="M478,675L512,853L616,771Z" fill="#408c5c" stroke="#408c5c"/><path d="M478,675L616,771L659,696Z" fill="#3a9458" stroke="#3a9458"/><path d="M659,696L616,771L870,859Z" fill="#2b7f47" stroke="#2b7f47"/><path d="M659,696L870,859L876,689Z" fill="#227d3a" stroke="#227d3a"/><path d="M876,689L870,859L1024,814Z" fill="#166b28" stroke="#166b28"/><path d="M876,689L1024,814L938,668Z" fill="#137525" stroke="#137525"/><path d="M938,668L1024,814L1080,776Z" fill="#0c6a1b" stroke="#0c6a1b"/><path d="M938,668L1080,776L1137,616Z" fill="#087315" stroke="#087315"/><path d="M1137,616L1080,776L1283,628Z" fill="#006b04" stroke="#006b04"/><path d="M1283,628L1080,776L1329,795Z" fill="#005a00" stroke="#005a00"/><path d="M1283,628L1329,795L1447,678Z" fill="#005600" stroke="#005600"/><path d="M1447,678L1329,795L1402,828Z" fill="#004700" stroke="#004700"/><path d="M132,859L870,859L512,853Z" fill="#437d5f" stroke="#437d5f"/><path d="M132,859L512,853L219,822Z" fill="#5c8a73" stroke="#5c8a73"/><path d="M219,822L512,853L344,771Z" fill="#558c6e" stroke="#558c6e"/><path d="M512,853L870,859L616,771Z" fill="#317a4e" stroke="#317a4e"/><path d="M870,859L1402,828L1024,814Z" fill="#03530e" stroke="#03530e"/><path d="M1024,814L1402,828L1329,795Z" fill="#004a00" stroke="#004a00"/><path d="M1024,814L1329,795L1080,776Z" fill="#005607" stroke="#005607"/></g></svg>